<svg
  xmlns="http://www.w3.org/2000/svg"
  width="384"
  height="192"
  viewBox="0 0 384 192"
  fill="none"
  shape-rendering="crispEdges"
  data-cell-width="48"
  data-cell-height="48"
  data-frame-count="32"
  aria-labelledby="atlas-title atlas-description"
>
  <title id="atlas-title">Terminal Climber pixel-art sprite atlas</title>
  <desc id="atlas-description">Thirty-two 48 pixel frames for hanging, climbing, launching, falling, landing, walking, reacting to a bump, reaching a summit, planting a flag, camping, and packing.</desc>
  <style>
    .ink { fill: #101719; }
    .charcoal { fill: #2b3338; }
    .saffron { fill: #e85a2c; }
    .pale { fill: #f6ead2; }
    .teal { fill: #0f6b63; }
  </style>

  <!-- Row 0: hanging, shimmy, and reach frames. -->
  <g id="frame-hanging-idle-a" class="sprite-cell" data-frame="0" data-row="0" data-column="0" data-state="hanging" transform="translate(0 0)">
    <title>Hanging idle, centered</title>
    <rect class="ink" x="6" y="1" width="8" height="6" />
    <rect class="pale" x="8" y="2" width="4" height="3" />
    <rect class="ink" x="34" y="1" width="8" height="6" />
    <rect class="pale" x="36" y="2" width="4" height="3" />
    <rect class="ink" x="10" y="5" width="7" height="17" />
    <rect class="saffron" x="12" y="6" width="3" height="14" />
    <rect class="ink" x="31" y="5" width="7" height="17" />
    <rect class="saffron" x="33" y="6" width="3" height="14" />
    <rect class="ink" x="16" y="7" width="16" height="13" />
    <rect class="pale" x="18" y="7" width="12" height="9" />
    <rect class="charcoal" x="25" y="11" width="5" height="3" />
    <rect class="pale" x="21" y="17" width="6" height="4" />
    <rect class="ink" x="14" y="19" width="20" height="16" />
    <rect class="saffron" x="17" y="20" width="14" height="12" />
    <rect class="charcoal" x="17" y="29" width="14" height="3" />
    <rect class="ink" x="17" y="34" width="14" height="12" />
    <rect class="teal" x="19" y="34" width="5" height="9" />
    <rect class="teal" x="26" y="34" width="3" height="10" />
    <rect class="charcoal" x="18" y="43" width="7" height="3" />
    <rect class="charcoal" x="26" y="44" width="7" height="3" />
  </g>

  <g id="frame-hanging-idle-b" class="sprite-cell" data-frame="1" data-row="0" data-column="1" data-state="hanging" transform="translate(48 0)">
    <title>Hanging idle, weight shifted right</title>
    <rect class="ink" x="7" y="2" width="8" height="6" />
    <rect class="pale" x="9" y="3" width="4" height="3" />
    <rect class="ink" x="35" y="1" width="8" height="6" />
    <rect class="pale" x="37" y="2" width="4" height="3" />
    <polygon class="ink" points="11,6 17,6 19,21 13,23" />
    <polygon class="saffron" points="13,7 16,7 17,19 15,20" />
    <polygon class="ink" points="32,6 38,5 38,20 32,22" />
    <polygon class="saffron" points="34,7 36,6 36,18 34,19" />
    <rect class="ink" x="17" y="8" width="16" height="13" />
    <rect class="pale" x="19" y="8" width="12" height="9" />
    <rect class="charcoal" x="19" y="12" width="5" height="3" />
    <rect class="pale" x="22" y="18" width="6" height="4" />
    <polygon class="ink" points="16,20 35,20 34,36 18,35" />
    <polygon class="saffron" points="19,21 32,21 31,33 20,32" />
    <rect class="charcoal" x="20" y="30" width="12" height="3" />
    <polygon class="ink" points="19,34 33,34 35,45 28,47 25,39 23,46 16,44" />
    <polygon class="teal" points="21,35 31,35 32,43 29,44 25,37 22,44 19,43" />
    <rect class="charcoal" x="14" y="42" width="8" height="4" />
    <rect class="charcoal" x="29" y="43" width="8" height="4" />
  </g>

  <g id="frame-shimmy-left" class="sprite-cell" data-frame="2" data-row="0" data-column="2" data-state="shimmying" transform="translate(96 0)">
    <title>Shimmying left</title>
    <rect class="ink" x="3" y="2" width="8" height="6" />
    <rect class="pale" x="5" y="3" width="4" height="3" />
    <rect class="ink" x="27" y="2" width="8" height="6" />
    <rect class="pale" x="29" y="3" width="4" height="3" />
    <rect class="ink" x="7" y="6" width="24" height="7" />
    <rect class="saffron" x="9" y="8" width="20" height="3" />
    <polygon class="ink" points="15,10 30,9 34,20 20,24 13,18" />
    <polygon class="saffron" points="18,12 28,11 31,19 21,21 16,17" />
    <rect class="ink" x="14" y="14" width="15" height="12" />
    <rect class="pale" x="16" y="14" width="11" height="8" />
    <rect class="charcoal" x="16" y="18" width="5" height="3" />
    <rect class="pale" x="20" y="23" width="6" height="4" />
    <polygon class="ink" points="19,24 35,20 39,34 23,37" />
    <polygon class="saffron" points="22,25 33,22 36,32 25,34" />
    <polygon class="charcoal" points="24,32 36,29 37,33 25,36" />
    <polygon class="ink" points="23,36 37,32 40,42 34,46 30,39 28,46 21,45" />
    <polygon class="teal" points="25,37 35,34 37,41 34,43 30,37 27,44 24,43" />
    <rect class="charcoal" x="19" y="43" width="9" height="4" />
    <rect class="charcoal" x="34" y="41" width="8" height="4" />
  </g>

  <g id="frame-shimmy-right" class="sprite-cell" data-frame="3" data-row="0" data-column="3" data-state="shimmying" transform="translate(144 0)">
    <title>Shimmying right</title>
    <rect class="ink" x="13" y="2" width="8" height="6" />
    <rect class="pale" x="15" y="3" width="4" height="3" />
    <rect class="ink" x="37" y="2" width="8" height="6" />
    <rect class="pale" x="39" y="3" width="4" height="3" />
    <rect class="ink" x="17" y="6" width="24" height="7" />
    <rect class="saffron" x="19" y="8" width="20" height="3" />
    <polygon class="ink" points="18,9 33,10 40,18 35,24 20,20" />
    <polygon class="saffron" points="20,11 31,12 37,17 34,21 23,18" />
    <rect class="ink" x="19" y="14" width="15" height="12" />
    <rect class="pale" x="21" y="14" width="11" height="8" />
    <rect class="charcoal" x="27" y="18" width="5" height="3" />
    <rect class="pale" x="22" y="23" width="6" height="4" />
    <polygon class="ink" points="13,20 29,24 25,37 9,34" />
    <polygon class="saffron" points="15,22 26,25 23,34 12,32" />
    <polygon class="charcoal" points="12,29 24,32 23,36 11,33" />
    <polygon class="ink" points="11,32 25,36 27,45 20,46 17,39 13,46 7,42" />
    <polygon class="teal" points="13,34 23,37 24,43 20,44 17,37 13,43 10,41" />
    <rect class="charcoal" x="6" y="40" width="8" height="4" />
    <rect class="charcoal" x="20" y="43" width="9" height="4" />
  </g>

  <g id="frame-reach-left-a" class="sprite-cell" data-frame="4" data-row="0" data-column="4" data-state="hanging" transform="translate(192 0)">
    <title>Reaching left from a hang</title>
    <rect class="ink" x="1" y="7" width="8" height="6" />
    <rect class="pale" x="3" y="8" width="4" height="3" />
    <rect class="ink" x="34" y="1" width="8" height="6" />
    <rect class="pale" x="36" y="2" width="4" height="3" />
    <polygon class="ink" points="7,8 29,11 29,18 6,14" />
    <polygon class="saffron" points="8,10 27,13 27,16 8,12" />
    <rect class="ink" x="31" y="5" width="7" height="18" />
    <rect class="saffron" x="33" y="6" width="3" height="15" />
    <rect class="ink" x="17" y="9" width="16" height="13" />
    <rect class="pale" x="19" y="9" width="12" height="9" />
    <rect class="charcoal" x="19" y="13" width="5" height="3" />
    <rect class="pale" x="22" y="19" width="6" height="4" />
    <polygon class="ink" points="14,20 34,20 32,36 15,34" />
    <polygon class="saffron" points="17,21 31,22 29,33 18,31" />
    <rect class="charcoal" x="18" y="30" width="12" height="3" />
    <polygon class="ink" points="16,33 31,35 34,45 27,47 23,39 20,46 13,44" />
    <polygon class="teal" points="18,35 29,36 31,43 28,44 23,37 19,44 16,42" />
    <rect class="charcoal" x="11" y="42" width="9" height="4" />
    <rect class="charcoal" x="28" y="43" width="8" height="4" />
  </g>

  <g id="frame-reach-left-b" class="sprite-cell" data-frame="5" data-row="0" data-column="5" data-state="hanging" transform="translate(240 0)">
    <title>Reaching high to the left</title>
    <rect class="ink" x="3" y="0" width="8" height="6" />
    <rect class="pale" x="5" y="1" width="4" height="3" />
    <rect class="ink" x="36" y="5" width="8" height="6" />
    <rect class="pale" x="38" y="6" width="4" height="3" />
    <polygon class="ink" points="8,4 14,5 22,21 16,24" />
    <polygon class="saffron" points="9,5 12,6 20,20 17,21" />
    <polygon class="ink" points="30,12 40,8 43,13 33,20" />
    <polygon class="saffron" points="32,13 39,10 41,12 33,17" />
    <rect class="ink" x="17" y="9" width="16" height="13" />
    <rect class="pale" x="19" y="9" width="12" height="9" />
    <rect class="charcoal" x="19" y="13" width="5" height="3" />
    <rect class="pale" x="22" y="19" width="6" height="4" />
    <polygon class="ink" points="14,20 33,19 36,34 18,37" />
    <polygon class="saffron" points="17,21 31,21 33,32 20,34" />
    <polygon class="charcoal" points="19,31 33,29 34,33 20,35" />
    <polygon class="ink" points="18,35 34,32 38,42 32,46 27,39 24,47 17,46" />
    <polygon class="teal" points="20,36 32,34 35,41 32,43 27,37 23,44 20,44" />
    <rect class="charcoal" x="15" y="43" width="9" height="4" />
    <rect class="charcoal" x="32" y="41" width="8" height="4" />
  </g>

  <g id="frame-reach-right-a" class="sprite-cell" data-frame="6" data-row="0" data-column="6" data-state="hanging" transform="translate(288 0)">
    <title>Reaching right from a hang</title>
    <rect class="ink" x="6" y="1" width="8" height="6" />
    <rect class="pale" x="8" y="2" width="4" height="3" />
    <rect class="ink" x="39" y="7" width="8" height="6" />
    <rect class="pale" x="41" y="8" width="4" height="3" />
    <rect class="ink" x="10" y="5" width="7" height="18" />
    <rect class="saffron" x="12" y="6" width="3" height="15" />
    <polygon class="ink" points="19,11 41,8 42,14 19,18" />
    <polygon class="saffron" points="21,13 40,10 40,12 21,16" />
    <rect class="ink" x="15" y="9" width="16" height="13" />
    <rect class="pale" x="17" y="9" width="12" height="9" />
    <rect class="charcoal" x="24" y="13" width="5" height="3" />
    <rect class="pale" x="20" y="19" width="6" height="4" />
    <polygon class="ink" points="14,20 34,20 33,34 16,36" />
    <polygon class="saffron" points="17,22 31,21 30,31 18,33" />
    <rect class="charcoal" x="18" y="30" width="12" height="3" />
    <polygon class="ink" points="17,35 32,33 35,44 28,46 24,39 21,47 14,45" />
    <polygon class="teal" points="19,36 30,35 32,43 29,44 24,37 20,44 17,43" />
    <rect class="charcoal" x="12" y="43" width="9" height="4" />
    <rect class="charcoal" x="29" y="42" width="8" height="4" />
  </g>

  <g id="frame-reach-right-b" class="sprite-cell" data-frame="7" data-row="0" data-column="7" data-state="hanging" transform="translate(336 0)">
    <title>Reaching high to the right</title>
    <rect class="ink" x="4" y="5" width="8" height="6" />
    <rect class="pale" x="6" y="6" width="4" height="3" />
    <rect class="ink" x="37" y="0" width="8" height="6" />
    <rect class="pale" x="39" y="1" width="4" height="3" />
    <polygon class="ink" points="8,8 18,12 17,20 5,13" />
    <polygon class="saffron" points="9,10 16,13 15,17 7,12" />
    <polygon class="ink" points="34,5 40,4 32,24 26,21" />
    <polygon class="saffron" points="36,5 39,5 31,21 28,20" />
    <rect class="ink" x="15" y="9" width="16" height="13" />
    <rect class="pale" x="17" y="9" width="12" height="9" />
    <rect class="charcoal" x="24" y="13" width="5" height="3" />
    <rect class="pale" x="20" y="19" width="6" height="4" />
    <polygon class="ink" points="14,19 33,20 30,37 12,34" />
    <polygon class="saffron" points="17,21 31,21 28,34 15,32" />
    <polygon class="charcoal" points="15,29 29,31 29,35 15,33" />
    <polygon class="ink" points="13,32 29,35 31,46 24,47 20,39 16,46 10,42" />
    <polygon class="teal" points="15,34 27,36 28,44 24,45 20,37 16,43 13,41" />
    <rect class="charcoal" x="8" y="40" width="8" height="4" />
    <rect class="charcoal" x="24" y="43" width="9" height="4" />
  </g>

  <!-- Row 1: four climbs, two launches, and the first two fall frames. -->
  <g id="frame-climb-1" class="sprite-cell" data-frame="8" data-row="1" data-column="0" data-state="climbing" transform="translate(0 48)">
    <title>Climb, feet searching</title>
    <rect class="ink" x="6" y="2" width="8" height="6" />
    <rect class="pale" x="8" y="3" width="4" height="3" />
    <rect class="ink" x="34" y="2" width="8" height="6" />
    <rect class="pale" x="36" y="3" width="4" height="3" />
    <polygon class="ink" points="11,6 17,7 20,22 14,24" />
    <polygon class="saffron" points="13,7 16,8 18,20 16,21" />
    <polygon class="ink" points="31,7 37,6 35,24 29,22" />
    <polygon class="saffron" points="33,8 35,7 33,21 31,20" />
    <rect class="ink" x="16" y="8" width="16" height="13" />
    <rect class="pale" x="18" y="8" width="12" height="9" />
    <rect class="charcoal" x="25" y="12" width="5" height="3" />
    <rect class="pale" x="21" y="18" width="6" height="4" />
    <rect class="ink" x="14" y="20" width="20" height="15" />
    <rect class="saffron" x="17" y="21" width="14" height="11" />
    <rect class="charcoal" x="17" y="30" width="14" height="3" />
    <polygon class="ink" points="17,34 31,34 29,44 23,46 21,40 16,43 11,39" />
    <polygon class="teal" points="19,35 29,35 27,42 24,43 21,38 16,41 14,39" />
    <rect class="charcoal" x="9" y="37" width="8" height="4" />
    <rect class="charcoal" x="23" y="42" width="8" height="4" />
  </g>

  <g id="frame-climb-2" class="sprite-cell" data-frame="9" data-row="1" data-column="1" data-state="climbing" transform="translate(48 48)">
    <title>Climb, pulling upward</title>
    <rect class="ink" x="9" y="1" width="8" height="6" />
    <rect class="pale" x="11" y="2" width="4" height="3" />
    <rect class="ink" x="34" y="3" width="8" height="6" />
    <rect class="pale" x="36" y="4" width="4" height="3" />
    <polygon class="ink" points="13,5 19,6 20,18 14,20" />
    <polygon class="saffron" points="15,6 17,7 18,16 16,17" />
    <polygon class="ink" points="31,7 37,7 35,22 29,20" />
    <polygon class="saffron" points="33,8 35,8 33,19 31,18" />
    <rect class="ink" x="17" y="6" width="16" height="13" />
    <rect class="pale" x="19" y="6" width="12" height="9" />
    <rect class="charcoal" x="26" y="10" width="5" height="3" />
    <rect class="pale" x="22" y="16" width="6" height="4" />
    <polygon class="ink" points="15,18 34,18 32,33 13,35" />
    <polygon class="saffron" points="18,20 31,19 29,31 16,32" />
    <polygon class="charcoal" points="16,29 30,28 30,32 16,33" />
    <polygon class="ink" points="15,33 31,31 36,39 31,44 25,38 22,47 15,46" />
    <polygon class="teal" points="17,34 29,33 33,39 31,41 25,36 21,44 18,44" />
    <rect class="charcoal" x="13" y="43" width="9" height="4" />
    <rect class="charcoal" x="31" y="38" width="8" height="4" />
  </g>

  <g id="frame-climb-3" class="sprite-cell" data-frame="10" data-row="1" data-column="2" data-state="climbing" transform="translate(96 48)">
    <title>Climb, left knee high</title>
    <rect class="ink" x="5" y="2" width="8" height="6" />
    <rect class="pale" x="7" y="3" width="4" height="3" />
    <rect class="ink" x="31" y="1" width="8" height="6" />
    <rect class="pale" x="33" y="2" width="4" height="3" />
    <polygon class="ink" points="10,6 17,7 18,20 12,21" />
    <polygon class="saffron" points="12,7 15,8 16,18 14,19" />
    <polygon class="ink" points="28,6 35,5 34,19 28,21" />
    <polygon class="saffron" points="30,7 33,6 32,18 30,19" />
    <rect class="ink" x="14" y="7" width="16" height="13" />
    <rect class="pale" x="16" y="7" width="12" height="9" />
    <rect class="charcoal" x="16" y="11" width="5" height="3" />
    <rect class="pale" x="19" y="17" width="6" height="4" />
    <polygon class="ink" points="11,19 31,18 34,33 16,36" />
    <polygon class="saffron" points="14,20 29,20 31,31 18,33" />
    <polygon class="charcoal" points="17,30 31,28 32,32 18,34" />
    <polygon class="ink" points="16,34 32,31 35,41 28,44 24,39 16,41 12,36" />
    <polygon class="teal" points="18,35 30,33 32,40 28,42 24,37 17,39 15,36" />
    <rect class="charcoal" x="10" y="34" width="9" height="4" />
    <rect class="charcoal" x="28" y="40" width="9" height="4" />
  </g>

  <g id="frame-climb-4" class="sprite-cell" data-frame="11" data-row="1" data-column="3" data-state="climbing" transform="translate(144 48)">
    <title>Climb, stepping onto the hold</title>
    <rect class="ink" x="8" y="1" width="8" height="6" />
    <rect class="pale" x="10" y="2" width="4" height="3" />
    <rect class="ink" x="37" y="8" width="8" height="6" />
    <rect class="pale" x="39" y="9" width="4" height="3" />
    <polygon class="ink" points="12,5 18,6 21,20 15,22" />
    <polygon class="saffron" points="14,6 17,7 19,18 17,19" />
    <polygon class="ink" points="29,13 40,9 43,14 31,21" />
    <polygon class="saffron" points="31,14 39,11 41,13 31,18" />
    <rect class="ink" x="17" y="7" width="16" height="13" />
    <rect class="pale" x="19" y="7" width="12" height="9" />
    <rect class="charcoal" x="26" y="11" width="5" height="3" />
    <rect class="pale" x="22" y="17" width="6" height="4" />
    <polygon class="ink" points="15,19 34,18 37,32 18,36" />
    <polygon class="saffron" points="18,20 32,20 34,30 20,33" />
    <polygon class="charcoal" points="20,30 34,28 35,32 20,34" />
    <polygon class="ink" points="18,34 35,31 38,38 32,42 27,38 22,46 15,44" />
    <polygon class="teal" points="20,35 33,33 35,38 32,40 27,36 22,43 18,42" />
    <rect class="charcoal" x="13" y="42" width="9" height="4" />
    <rect class="charcoal" x="32" y="37" width="8" height="4" />
  </g>

  <g id="frame-launch-1" class="sprite-cell" data-frame="12" data-row="1" data-column="4" data-state="launching" transform="translate(192 48)">
    <title>Launch crouch</title>
    <rect class="ink" x="17" y="18" width="16" height="13" />
    <rect class="pale" x="19" y="18" width="12" height="9" />
    <rect class="charcoal" x="19" y="22" width="5" height="3" />
    <rect class="pale" x="22" y="28" width="6" height="4" />
    <polygon class="ink" points="13,29 34,29 38,40 31,43 25,37 18,42 10,38" />
    <polygon class="saffron" points="16,31 32,31 35,38 31,40 25,34 18,39 13,37" />
    <rect class="charcoal" x="18" y="37" width="14" height="3" />
    <polygon class="ink" points="17,39 32,39 40,44 37,48 26,45 19,47 8,45 10,41" />
    <polygon class="teal" points="18,40 31,40 36,43 34,45 26,43 19,45 12,43 13,42" />
    <rect class="charcoal" x="6" y="43" width="11" height="4" />
    <rect class="charcoal" x="33" y="43" width="10" height="4" />
    <polygon class="ink" points="14,30 18,33 9,38 6,35" />
    <polygon class="saffron" points="15,32 16,33 9,36 8,35" />
    <polygon class="ink" points="33,31 37,29 43,35 40,38" />
    <polygon class="saffron" points="35,32 37,31 41,35 40,36" />
    <rect class="ink" x="4" y="34" width="6" height="7" />
    <rect class="pale" x="5" y="36" width="4" height="3" />
    <rect class="ink" x="39" y="34" width="6" height="7" />
    <rect class="pale" x="40" y="36" width="4" height="3" />
  </g>

  <g id="frame-launch-2" class="sprite-cell" data-frame="13" data-row="1" data-column="5" data-state="launching" transform="translate(240 48)">
    <title>Launch airborne</title>
    <rect class="ink" x="6" y="2" width="8" height="6" />
    <rect class="pale" x="8" y="3" width="4" height="3" />
    <rect class="ink" x="34" y="2" width="8" height="6" />
    <rect class="pale" x="36" y="3" width="4" height="3" />
    <polygon class="ink" points="11,6 17,7 20,20 14,22" />
    <polygon class="saffron" points="13,7 16,8 18,18 16,19" />
    <polygon class="ink" points="31,7 37,6 34,22 28,20" />
    <polygon class="saffron" points="33,8 35,7 32,19 30,18" />
    <rect class="ink" x="16" y="8" width="16" height="13" />
    <rect class="pale" x="18" y="8" width="12" height="9" />
    <rect class="charcoal" x="25" y="12" width="5" height="3" />
    <rect class="pale" x="21" y="18" width="6" height="4" />
    <polygon class="ink" points="14,20 34,20 32,34 16,34" />
    <polygon class="saffron" points="17,22 31,22 29,31 18,31" />
    <rect class="charcoal" x="18" y="30" width="12" height="3" />
    <polygon class="ink" points="17,33 31,33 38,41 33,45 25,38 20,46 13,42" />
    <polygon class="teal" points="19,34 29,34 35,40 33,42 25,36 20,43 16,41" />
    <rect class="charcoal" x="11" y="40" width="9" height="4" />
    <rect class="charcoal" x="33" y="39" width="8" height="4" />
  </g>

  <g id="frame-fall-1" class="sprite-cell" data-frame="14" data-row="1" data-column="6" data-state="falling" transform="translate(288 48)">
    <title>Fall, arms overhead</title>
    <rect class="ink" x="8" y="2" width="7" height="7" />
    <rect class="pale" x="10" y="4" width="4" height="3" />
    <rect class="ink" x="34" y="2" width="7" height="7" />
    <rect class="pale" x="35" y="4" width="4" height="3" />
    <polygon class="ink" points="12,7 18,7 21,21 15,23" />
    <polygon class="saffron" points="14,8 17,9 19,19 17,20" />
    <polygon class="ink" points="31,7 37,7 34,23 28,21" />
    <polygon class="saffron" points="33,9 35,8 32,20 30,19" />
    <rect class="ink" x="17" y="8" width="16" height="13" />
    <rect class="pale" x="19" y="8" width="12" height="9" />
    <rect class="charcoal" x="19" y="12" width="5" height="3" />
    <rect class="pale" x="22" y="18" width="6" height="4" />
    <rect class="ink" x="15" y="20" width="19" height="15" />
    <rect class="saffron" x="18" y="22" width="13" height="10" />
    <rect class="charcoal" x="18" y="30" width="13" height="3" />
    <polygon class="ink" points="17,34 32,34 36,45 29,47 24,39 20,47 13,44" />
    <polygon class="teal" points="19,35 30,35 33,43 29,45 24,37 20,44 16,42" />
    <rect class="charcoal" x="11" y="42" width="9" height="4" />
    <rect class="charcoal" x="29" y="43" width="9" height="4" />
  </g>

  <g id="frame-fall-2" class="sprite-cell" data-frame="15" data-row="1" data-column="7" data-state="falling" transform="translate(336 48)">
    <title>Fall, arms spread</title>
    <rect class="ink" x="1" y="17" width="7" height="7" />
    <rect class="pale" x="3" y="19" width="4" height="3" />
    <rect class="ink" x="40" y="14" width="7" height="7" />
    <rect class="pale" x="41" y="16" width="4" height="3" />
    <polygon class="ink" points="6,17 19,13 21,19 8,23" />
    <polygon class="saffron" points="8,18 18,15 19,17 8,21" />
    <polygon class="ink" points="29,13 42,15 41,21 28,19" />
    <polygon class="saffron" points="30,15 40,17 40,19 29,17" />
    <rect class="ink" x="17" y="4" width="16" height="13" />
    <rect class="pale" x="19" y="4" width="12" height="9" />
    <rect class="charcoal" x="26" y="8" width="5" height="3" />
    <rect class="pale" x="22" y="14" width="6" height="4" />
    <polygon class="ink" points="15,16 34,16 35,32 17,34" />
    <polygon class="saffron" points="18,18 31,18 32,30 19,31" />
    <polygon class="charcoal" points="19,28 32,28 33,32 19,33" />
    <polygon class="ink" points="18,32 34,30 43,38 39,43 27,37 20,47 11,43 14,39 21,36" />
    <polygon class="teal" points="20,33 32,32 39,38 38,40 27,35 20,44 15,42 17,39 23,35" />
    <rect class="charcoal" x="9" y="41" width="10" height="4" />
    <rect class="charcoal" x="38" y="37" width="9" height="4" />
  </g>

  <!-- Row 2: two more falls, three landings, two grounded walks, and one bump. -->
  <g id="frame-fall-3" class="sprite-cell" data-frame="16" data-row="2" data-column="0" data-state="falling" transform="translate(0 96)">
    <title>Fall, tucked sideways</title>
    <rect class="ink" x="5" y="9" width="15" height="16" />
    <rect class="pale" x="7" y="11" width="11" height="12" />
    <rect class="charcoal" x="11" y="18" width="5" height="3" />
    <rect class="pale" x="17" y="15" width="5" height="6" />
    <polygon class="ink" points="19,12 34,17 32,34 15,31" />
    <polygon class="saffron" points="20,15 31,19 29,31 18,29" />
    <polygon class="charcoal" points="18,27 30,29 30,33 17,31" />
    <rect class="ink" x="1" y="25" width="7" height="7" />
    <rect class="pale" x="3" y="27" width="4" height="3" />
    <polygon class="ink" points="6,25 20,19 23,25 8,31" />
    <polygon class="saffron" points="8,26 19,22 20,24 8,29" />
    <rect class="ink" x="36" y="5" width="7" height="7" />
    <rect class="pale" x="38" y="7" width="4" height="3" />
    <polygon class="ink" points="31,17 38,9 43,13 35,23" />
    <polygon class="saffron" points="33,18 39,11 41,13 34,21" />
    <polygon class="ink" points="29,31 38,25 46,31 43,37 35,33 31,43 24,41" />
    <polygon class="teal" points="30,33 37,28 43,31 42,34 34,31 30,40 27,39" />
    <rect class="charcoal" x="22" y="39" width="9" height="4" />
    <rect class="charcoal" x="41" y="32" width="7" height="4" />
  </g>

  <g id="frame-fall-4" class="sprite-cell" data-frame="17" data-row="2" data-column="1" data-state="falling" transform="translate(48 96)">
    <title>Fall, legs fluttering</title>
    <rect class="ink" x="17" y="5" width="16" height="13" />
    <rect class="pale" x="19" y="5" width="12" height="9" />
    <rect class="charcoal" x="19" y="9" width="5" height="3" />
    <rect class="pale" x="22" y="15" width="6" height="4" />
    <polygon class="ink" points="15,17 34,17 32,32 16,34" />
    <polygon class="saffron" points="18,19 31,19 29,30 18,31" />
    <rect class="charcoal" x="18" y="29" width="12" height="3" />
    <rect class="ink" x="2" y="2" width="7" height="7" />
    <rect class="pale" x="4" y="4" width="4" height="3" />
    <polygon class="ink" points="7,7 20,15 17,21 4,12" />
    <polygon class="saffron" points="8,9 18,16 16,18 6,11" />
    <rect class="ink" x="40" y="4" width="7" height="7" />
    <rect class="pale" x="41" y="6" width="4" height="3" />
    <polygon class="ink" points="30,15 42,8 45,13 32,21" />
    <polygon class="saffron" points="31,17 41,10 43,12 32,19" />
    <polygon class="ink" points="17,32 31,31 34,39 29,44 24,38 18,47 11,44 13,40 20,36" />
    <polygon class="teal" points="19,33 29,33 31,39 29,41 24,36 18,44 15,43 16,40 22,35" />
    <rect class="charcoal" x="9" y="42" width="10" height="4" />
    <rect class="charcoal" x="29" y="38" width="8" height="4" />
  </g>

  <g id="frame-landing-1" class="sprite-cell" data-frame="18" data-row="2" data-column="2" data-state="landing" transform="translate(96 96)">
    <title>Landing impact squash</title>
    <rect class="ink" x="15" y="24" width="18" height="11" />
    <rect class="pale" x="17" y="25" width="14" height="7" />
    <rect class="charcoal" x="25" y="28" width="6" height="3" />
    <polygon class="ink" points="9,33 39,33 43,43 35,46 13,46 5,42" />
    <polygon class="saffron" points="12,35 36,35 39,41 34,43 14,43 9,41" />
    <rect class="charcoal" x="13" y="40" width="22" height="3" />
    <polygon class="ink" points="12,43 36,43 45,46 43,48 27,47 21,47 5,48 3,45" />
    <polygon class="teal" points="13,44 35,44 40,46 27,45 21,45 8,46" />
    <rect class="charcoal" x="2" y="44" width="13" height="4" />
    <rect class="charcoal" x="34" y="44" width="12" height="4" />
    <rect class="ink" x="3" y="31" width="7" height="7" />
    <rect class="pale" x="5" y="33" width="4" height="3" />
    <rect class="ink" x="38" y="31" width="7" height="7" />
    <rect class="pale" x="39" y="33" width="4" height="3" />
  </g>

  <g id="frame-landing-2" class="sprite-cell" data-frame="19" data-row="2" data-column="3" data-state="landing" transform="translate(144 96)">
    <title>Landing compressed crouch</title>
    <rect class="ink" x="16" y="17" width="17" height="13" />
    <rect class="pale" x="18" y="18" width="13" height="9" />
    <rect class="charcoal" x="25" y="22" width="6" height="3" />
    <rect class="pale" x="21" y="27" width="6" height="4" />
    <polygon class="ink" points="11,29 37,29 40,41 32,44 24,38 16,44 8,40" />
    <polygon class="saffron" points="14,31 34,31 37,39 32,41 24,35 16,41 11,39" />
    <rect class="charcoal" x="16" y="38" width="16" height="3" />
    <polygon class="ink" points="15,40 33,40 41,44 39,48 27,45 20,47 7,46 9,42" />
    <polygon class="teal" points="17,41 31,41 37,44 35,45 27,43 20,45 11,44 12,43" />
    <rect class="charcoal" x="6" y="43" width="12" height="4" />
    <rect class="charcoal" x="34" y="43" width="10" height="4" />
    <polygon class="ink" points="13,30 18,33 10,39 6,35" />
    <polygon class="saffron" points="14,32 16,33 10,37 8,35" />
    <polygon class="ink" points="34,31 38,29 43,36 39,39" />
    <polygon class="saffron" points="35,32 37,31 41,36 39,37" />
  </g>

  <g id="frame-landing-3" class="sprite-cell" data-frame="20" data-row="2" data-column="4" data-state="landing" transform="translate(192 96)">
    <title>Landing recovery</title>
    <rect class="ink" x="16" y="7" width="16" height="13" />
    <rect class="pale" x="18" y="7" width="12" height="9" />
    <rect class="charcoal" x="25" y="11" width="5" height="3" />
    <rect class="pale" x="21" y="17" width="6" height="4" />
    <polygon class="ink" points="13,19 35,19 34,35 14,35" />
    <polygon class="saffron" points="16,21 32,21 31,32 17,32" />
    <rect class="charcoal" x="17" y="30" width="14" height="3" />
    <polygon class="ink" points="15,34 33,34 38,43 33,46 25,40 18,46 10,43" />
    <polygon class="teal" points="17,35 31,35 35,42 33,43 25,38 18,43 13,42" />
    <rect class="charcoal" x="8" y="41" width="11" height="4" />
    <rect class="charcoal" x="33" y="41" width="9" height="4" />
    <polygon class="ink" points="13,20 18,22 13,35 8,33" />
    <polygon class="saffron" points="15,22 16,23 12,32 10,31" />
    <polygon class="ink" points="30,22 35,20 40,33 35,35" />
    <polygon class="saffron" points="32,23 34,22 38,31 36,32" />
    <rect class="ink" x="6" y="31" width="7" height="7" />
    <rect class="pale" x="8" y="33" width="4" height="3" />
    <rect class="ink" x="35" y="31" width="7" height="7" />
    <rect class="pale" x="36" y="33" width="4" height="3" />
  </g>

  <g id="frame-grounded-1" class="sprite-cell" data-frame="21" data-row="2" data-column="5" data-state="grounded" transform="translate(240 96)">
    <title>Grounded pace left</title>
    <rect class="ink" x="15" y="3" width="16" height="13" />
    <rect class="pale" x="17" y="3" width="12" height="9" />
    <rect class="charcoal" x="17" y="7" width="5" height="3" />
    <rect class="pale" x="20" y="13" width="6" height="4" />
    <polygon class="ink" points="12,15 33,15 35,31 15,34" />
    <polygon class="saffron" points="15,17 30,17 32,29 17,31" />
    <polygon class="charcoal" points="17,28 32,27 33,31 17,33" />
    <polygon class="ink" points="13,17 18,19 13,33 8,31" />
    <polygon class="saffron" points="15,19 16,20 12,30 10,29" />
    <polygon class="ink" points="31,17 36,16 39,29 34,31" />
    <polygon class="saffron" points="33,19 35,18 37,28 35,29" />
    <rect class="ink" x="6" y="29" width="7" height="7" />
    <rect class="pale" x="8" y="31" width="4" height="3" />
    <rect class="ink" x="34" y="28" width="7" height="7" />
    <rect class="pale" x="35" y="30" width="4" height="3" />
    <polygon class="ink" points="16,32 33,30 37,41 31,44 25,38 20,47 12,45" />
    <polygon class="teal" points="18,33 31,32 34,40 31,42 25,36 20,44 15,43" />
    <rect class="charcoal" x="10" y="43" width="11" height="4" />
    <rect class="charcoal" x="31" y="40" width="10" height="4" />
  </g>

  <g id="frame-grounded-2" class="sprite-cell" data-frame="22" data-row="2" data-column="6" data-state="grounded" transform="translate(288 96)">
    <title>Grounded pace right</title>
    <rect class="ink" x="17" y="3" width="16" height="13" />
    <rect class="pale" x="19" y="3" width="12" height="9" />
    <rect class="charcoal" x="26" y="7" width="5" height="3" />
    <rect class="pale" x="22" y="13" width="6" height="4" />
    <polygon class="ink" points="15,15 36,15 34,34 14,31" />
    <polygon class="saffron" points="18,17 33,17 31,31 16,29" />
    <polygon class="charcoal" points="17,27 32,28 32,32 17,30" />
    <polygon class="ink" points="14,16 19,18 15,31 10,29" />
    <polygon class="saffron" points="16,18 17,19 14,28 12,27" />
    <polygon class="ink" points="33,19 38,17 42,31 37,33" />
    <polygon class="saffron" points="35,20 37,19 40,29 38,30" />
    <rect class="ink" x="8" y="27" width="7" height="7" />
    <rect class="pale" x="10" y="29" width="4" height="3" />
    <rect class="ink" x="37" y="30" width="7" height="7" />
    <rect class="pale" x="38" y="32" width="4" height="3" />
    <polygon class="ink" points="15,30 32,32 40,45 32,47 26,38 21,44 12,41" />
    <polygon class="teal" points="17,32 30,33 36,43 32,45 26,36 21,42 15,40" />
    <rect class="charcoal" x="9" y="39" width="12" height="4" />
    <rect class="charcoal" x="31" y="43" width="11" height="4" />
  </g>

  <g id="frame-bump" class="sprite-cell" data-frame="23" data-row="2" data-column="7" data-state="bump" transform="translate(336 96)">
    <title>Leaning away from a slow cursor bump</title>
    <rect class="saffron" x="3" y="8" width="3" height="3" />
    <rect class="pale" x="1" y="14" width="4" height="3" />
    <rect class="charcoal" x="5" y="20" width="3" height="3" />
    <polygon class="ink" points="17,4 33,7 31,20 15,17" />
    <polygon class="pale" points="19,6 31,8 29,17 17,15" />
    <polygon class="charcoal" points="19,10 24,11 23,14 18,13" />
    <rect class="pale" x="18" y="16" width="6" height="4" />
    <polygon class="ink" points="13,17 33,20 29,36 10,31" />
    <polygon class="saffron" points="16,19 30,21 27,33 13,29" />
    <polygon class="charcoal" points="14,27 28,30 28,34 13,31" />
    <polygon class="ink" points="14,18 19,21 11,33 6,29" />
    <polygon class="saffron" points="15,20 17,21 10,30 8,29" />
    <rect class="ink" x="4" y="27" width="7" height="7" />
    <rect class="pale" x="6" y="29" width="4" height="3" />
    <polygon class="ink" points="28,20 42,13 45,18 31,27" />
    <polygon class="saffron" points="30,21 41,15 43,17 31,25" />
    <rect class="ink" x="40" y="11" width="7" height="7" />
    <rect class="pale" x="41" y="13" width="4" height="3" />
    <polygon class="ink" points="11,30 29,34 34,46 27,47 22,39 16,45 8,41" />
    <polygon class="teal" points="13,32 27,35 31,44 27,45 22,37 16,43 11,40" />
    <rect class="charcoal" x="6" y="39" width="11" height="4" />
    <rect class="charcoal" x="27" y="43" width="10" height="4" />
  </g>

  <!-- Row 3: summit mantle, flag planting, camp, and pack-up frames. -->
  <g id="frame-summit-mantle-1" class="sprite-cell" data-frame="24" data-row="3" data-column="0" data-state="summiting" transform="translate(0 144)">
    <title>Pulling over the summit edge</title>
    <rect class="ink" x="7" y="42" width="8" height="6" />
    <rect class="pale" x="9" y="43" width="4" height="3" />
    <rect class="ink" x="34" y="41" width="8" height="6" />
    <rect class="pale" x="36" y="42" width="4" height="3" />
    <polygon class="ink" points="11,39 16,36 22,29 26,33 18,41 14,44" />
    <polygon class="saffron" points="13,39 16,38 21,32 23,33 17,40 14,42" />
    <polygon class="ink" points="35,39 31,35 28,29 24,32 29,40 36,44" />
    <polygon class="saffron" points="34,40 31,37 27,32 26,33 30,39 35,42" />
    <polygon class="ink" points="17,15 33,15 34,28 18,29" />
    <rect class="pale" x="19" y="16" width="12" height="9" />
    <rect class="charcoal" x="26" y="20" width="5" height="3" />
    <rect class="pale" x="22" y="25" width="6" height="4" />
    <polygon class="ink" points="18,27 32,27 35,40 17,40" />
    <polygon class="saffron" points="20,29 30,29 32,38 19,38" />
    <rect class="charcoal" x="20" y="36" width="12" height="3" />
    <polygon class="ink" points="18,38 33,38 37,46 29,47 25,42 20,47 14,45" />
    <polygon class="teal" points="20,39 31,39 34,44 29,45 25,40 20,45 17,44" />
    <rect class="charcoal" x="12" y="44" width="10" height="4" />
    <rect class="charcoal" x="29" y="44" width="10" height="4" />
  </g>

  <g id="frame-summit-mantle-2" class="sprite-cell" data-frame="25" data-row="3" data-column="1" data-state="summiting" transform="translate(48 144)">
    <title>Kneeling onto the summit</title>
    <rect class="ink" x="16" y="5" width="17" height="13" />
    <rect class="pale" x="18" y="6" width="13" height="9" />
    <rect class="charcoal" x="26" y="10" width="5" height="3" />
    <rect class="pale" x="21" y="15" width="7" height="4" />
    <polygon class="ink" points="13,17 35,17 36,33 16,35 12,27" />
    <polygon class="saffron" points="16,19 32,19 33,31 18,32 15,26" />
    <rect class="charcoal" x="18" y="29" width="15" height="3" />
    <polygon class="ink" points="14,20 19,22 12,37 7,34" />
    <polygon class="saffron" points="16,22 17,23 11,34 9,33" />
    <rect class="ink" x="5" y="33" width="8" height="7" />
    <rect class="pale" x="7" y="35" width="4" height="3" />
    <polygon class="ink" points="32,20 38,21 42,36 36,38" />
    <polygon class="saffron" points="34,22 36,23 39,34 37,35" />
    <rect class="ink" x="36" y="34" width="8" height="7" />
    <rect class="pale" x="38" y="36" width="4" height="3" />
    <polygon class="ink" points="16,33 33,31 41,42 36,46 27,40 22,47 10,46 8,42" />
    <polygon class="teal" points="18,34 31,33 37,41 35,43 27,38 22,44 12,44 11,42" />
    <rect class="charcoal" x="8" y="43" width="15" height="4" />
    <rect class="charcoal" x="34" y="41" width="10" height="4" />
  </g>

  <g id="frame-plant-1" class="sprite-cell" data-frame="26" data-row="3" data-column="2" data-state="planting" transform="translate(96 144)">
    <title>Kneeling with the flag pole</title>
    <rect class="ink" x="12" y="5" width="17" height="13" />
    <rect class="pale" x="14" y="6" width="13" height="9" />
    <rect class="charcoal" x="22" y="10" width="5" height="3" />
    <rect class="pale" x="17" y="15" width="7" height="4" />
    <polygon class="ink" points="10,17 32,17 34,34 13,35" />
    <polygon class="saffron" points="13,19 29,19 31,31 15,32" />
    <rect class="charcoal" x="15" y="29" width="15" height="3" />
    <polygon class="ink" points="29,19 35,18 42,29 37,33 31,25" />
    <polygon class="saffron" points="31,20 34,20 39,28 37,30 33,24" />
    <rect class="ink" x="37" y="27" width="8" height="7" />
    <rect class="pale" x="39" y="29" width="4" height="3" />
    <polygon class="ink" points="12,19 17,22 11,34 6,31" />
    <polygon class="saffron" points="14,21 15,23 10,32 8,30" />
    <rect class="ink" x="4" y="29" width="8" height="7" />
    <rect class="pale" x="6" y="31" width="4" height="3" />
    <polygon class="ink" points="14,33 31,31 39,42 34,46 26,40 21,47 9,46 7,42" />
    <polygon class="teal" points="16,34 29,33 35,41 33,43 26,38 21,44 11,44 10,42" />
    <rect class="charcoal" x="7" y="43" width="15" height="4" />
    <rect class="charcoal" x="32" y="41" width="10" height="4" />
  </g>

  <g id="frame-plant-2" class="sprite-cell" data-frame="27" data-row="3" data-column="3" data-state="planting" transform="translate(144 144)">
    <title>Hammering the flag into the summit</title>
    <rect class="ink" x="12" y="6" width="17" height="13" />
    <rect class="pale" x="14" y="7" width="13" height="9" />
    <rect class="charcoal" x="22" y="11" width="5" height="3" />
    <rect class="pale" x="17" y="16" width="7" height="4" />
    <polygon class="ink" points="10,18 32,18 34,35 13,36" />
    <polygon class="saffron" points="13,20 29,20 31,32 15,33" />
    <rect class="charcoal" x="15" y="30" width="15" height="3" />
    <polygon class="ink" points="30,20 35,17 42,9 46,13 38,21 34,27" />
    <polygon class="saffron" points="32,21 36,18 42,12 44,13 37,20 34,25" />
    <rect class="ink" x="40" y="7" width="8" height="7" />
    <rect class="pale" x="42" y="9" width="4" height="3" />
    <polygon class="ink" points="11,20 17,21 15,35 9,35" />
    <polygon class="saffron" points="13,22 15,23 13,33 11,33" />
    <rect class="ink" x="7" y="32" width="8" height="7" />
    <rect class="pale" x="9" y="34" width="4" height="3" />
    <polygon class="ink" points="14,34 31,32 39,43 34,47 26,41 21,48 9,47 7,43" />
    <polygon class="teal" points="16,35 29,34 35,42 33,44 26,39 21,45 11,45 10,43" />
    <rect class="charcoal" x="7" y="44" width="15" height="4" />
    <rect class="charcoal" x="32" y="42" width="10" height="4" />
  </g>

  <g id="frame-camped-sit" class="sprite-cell" data-frame="28" data-row="3" data-column="4" data-state="camped" transform="translate(192 144)">
    <title>Sitting at camp with legs dangling</title>
    <rect class="ink" x="15" y="4" width="17" height="13" />
    <rect class="pale" x="17" y="5" width="13" height="9" />
    <rect class="charcoal" x="25" y="9" width="5" height="3" />
    <rect class="pale" x="20" y="14" width="7" height="4" />
    <polygon class="ink" points="12,16 34,16 36,33 14,34" />
    <polygon class="saffron" points="15,18 31,18 33,30 16,31" />
    <rect class="charcoal" x="16" y="28" width="17" height="3" />
    <polygon class="ink" points="13,18 18,20 13,33 8,31" />
    <polygon class="saffron" points="15,20 16,21 12,30 10,29" />
    <rect class="ink" x="6" y="29" width="8" height="7" />
    <rect class="pale" x="8" y="31" width="4" height="3" />
    <polygon class="ink" points="31,18 36,20 40,32 35,34" />
    <polygon class="saffron" points="33,20 35,21 38,30 36,31" />
    <rect class="ink" x="34" y="31" width="8" height="7" />
    <rect class="pale" x="36" y="33" width="4" height="3" />
    <polygon class="ink" points="14,32 34,31 37,39 29,42 22,38 15,41" />
    <polygon class="teal" points="17,33 31,33 33,38 29,39 22,36 17,39" />
    <rect class="teal" x="17" y="38" width="7" height="9" />
    <rect class="teal" x="28" y="39" width="7" height="8" />
    <rect class="charcoal" x="15" y="45" width="10" height="3" />
    <rect class="charcoal" x="27" y="45" width="10" height="3" />
  </g>

  <g id="frame-camped-wave" class="sprite-cell" data-frame="29" data-row="3" data-column="5" data-state="camped" transform="translate(240 144)">
    <title>Waving from the summit</title>
    <rect class="ink" x="15" y="4" width="17" height="13" />
    <rect class="pale" x="17" y="5" width="13" height="9" />
    <rect class="charcoal" x="25" y="9" width="5" height="3" />
    <rect class="pale" x="20" y="14" width="7" height="4" />
    <polygon class="ink" points="12,16 34,16 36,33 14,34" />
    <polygon class="saffron" points="15,18 31,18 33,30 16,31" />
    <rect class="charcoal" x="16" y="28" width="17" height="3" />
    <polygon class="ink" points="31,18 36,15 40,7 45,9 41,20 35,24" />
    <polygon class="saffron" points="33,19 37,16 41,9 43,10 39,19 35,22" />
    <rect class="ink" x="39" y="1" width="8" height="8" />
    <rect class="pale" x="41" y="3" width="4" height="4" />
    <polygon class="ink" points="13,18 18,20 13,33 8,31" />
    <polygon class="saffron" points="15,20 16,21 12,30 10,29" />
    <rect class="ink" x="6" y="29" width="8" height="7" />
    <rect class="pale" x="8" y="31" width="4" height="3" />
    <polygon class="ink" points="14,32 34,31 37,39 29,42 22,38 15,41" />
    <polygon class="teal" points="17,33 31,33 33,38 29,39 22,36 17,39" />
    <rect class="teal" x="17" y="38" width="7" height="9" />
    <rect class="teal" x="28" y="39" width="7" height="8" />
    <rect class="charcoal" x="15" y="45" width="10" height="3" />
    <rect class="charcoal" x="27" y="45" width="10" height="3" />
  </g>

  <g id="frame-camped-doze" class="sprite-cell" data-frame="30" data-row="3" data-column="6" data-state="camped" transform="translate(288 144)">
    <title>Dozing beside the summit flag</title>
    <rect class="charcoal" x="38" y="3" width="6" height="2" />
    <rect class="charcoal" x="35" y="5" width="3" height="2" />
    <rect class="charcoal" x="40" y="7" width="5" height="2" />
    <polygon class="ink" points="13,7 30,4 33,17 16,20" />
    <polygon class="pale" points="16,8 28,6 30,14 18,17" />
    <rect class="charcoal" x="23" y="10" width="6" height="2" />
    <rect class="pale" x="20" y="16" width="7" height="4" />
    <polygon class="ink" points="13,18 34,15 37,32 15,35" />
    <polygon class="saffron" points="16,19 31,17 34,29 17,32" />
    <polygon class="charcoal" points="17,29 34,27 35,31 17,33" />
    <polygon class="ink" points="14,20 19,21 15,34 9,33" />
    <polygon class="saffron" points="16,21 17,23 14,32 11,31" />
    <rect class="ink" x="7" y="31" width="8" height="7" />
    <rect class="pale" x="9" y="33" width="4" height="3" />
    <polygon class="ink" points="31,18 36,19 40,31 35,34" />
    <polygon class="saffron" points="33,20 35,21 38,30 36,31" />
    <polygon class="ink" points="15,33 35,30 38,39 30,42 23,38 16,42" />
    <polygon class="teal" points="18,34 32,32 34,38 30,40 23,36 18,40" />
    <rect class="teal" x="18" y="39" width="7" height="8" />
    <rect class="teal" x="29" y="39" width="7" height="8" />
    <rect class="charcoal" x="16" y="45" width="10" height="3" />
    <rect class="charcoal" x="28" y="45" width="10" height="3" />
  </g>

  <g id="frame-pack-camp" class="sprite-cell" data-frame="31" data-row="3" data-column="7" data-state="packing" transform="translate(336 144)">
    <title>Rolling up the summit campsite</title>
    <rect class="ink" x="15" y="8" width="17" height="13" />
    <rect class="pale" x="17" y="9" width="13" height="9" />
    <rect class="charcoal" x="25" y="13" width="5" height="3" />
    <rect class="pale" x="20" y="18" width="7" height="4" />
    <polygon class="ink" points="12,20 34,20 37,36 14,37" />
    <polygon class="saffron" points="15,22 31,22 34,33 16,34" />
    <rect class="charcoal" x="16" y="31" width="17" height="3" />
    <polygon class="ink" points="13,22 18,24 12,38 7,35" />
    <polygon class="saffron" points="15,24 16,25 11,35 9,34" />
    <rect class="ink" x="5" y="34" width="8" height="7" />
    <rect class="pale" x="7" y="36" width="4" height="3" />
    <polygon class="ink" points="31,22 36,24 42,36 37,39" />
    <polygon class="saffron" points="33,24 35,25 39,35 37,36" />
    <rect class="ink" x="36" y="36" width="8" height="7" />
    <rect class="pale" x="38" y="38" width="4" height="3" />
    <polygon class="ink" points="14,35 34,34 41,43 35,47 27,41 21,47 9,46 7,42" />
    <polygon class="teal" points="17,36 31,36 37,42 34,44 27,39 21,44 11,44 10,42" />
    <rect class="charcoal" x="7" y="43" width="15" height="4" />
    <rect class="charcoal" x="33" y="42" width="10" height="4" />
    <rect class="ink" x="3" y="40" width="14" height="7" />
    <rect class="teal" x="4" y="41" width="12" height="5" />
    <rect class="pale" x="9" y="41" width="2" height="5" />
  </g>
</svg>
